<?xml version="1.0" encoding="UTF-8"?>
<svg width="1920" height="1080" viewBox="0 0 1920 1080" fill="none" xmlns="http://www.w3.org/2000/svg">
  <defs>
    <radialGradient id="bg" cx="0" cy="0" r="1" gradientUnits="userSpaceOnUse" gradientTransform="translate(350 180) rotate(35) scale(1400)">
      <stop offset="0" stop-color="#5D2FFE" stop-opacity="0.92"/>
      <stop offset="0.35" stop-color="#3EF9C5" stop-opacity="0.45"/>
      <stop offset="0.68" stop-color="#0EA5E9" stop-opacity="0.18"/>
      <stop offset="1" stop-color="#0B1120" stop-opacity="0"/>
    </radialGradient>
    <radialGradient id="orbA" cx="0" cy="0" r="1" gradientUnits="userSpaceOnUse" gradientTransform="translate(1470 280) scale(480)">
      <stop stop-color="#38BDF8" stop-opacity="0.85"/>
      <stop offset="1" stop-color="#1D4ED8" stop-opacity="0"/>
    </radialGradient>
    <radialGradient id="orbB" cx="0" cy="0" r="1" gradientUnits="userSpaceOnUse" gradientTransform="translate(420 760) scale(560)">
      <stop stop-color="#A855F7" stop-opacity="0.85"/>
      <stop offset="1" stop-color="#7C3AED" stop-opacity="0"/>
    </radialGradient>
    <linearGradient id="cardGradient" x1="0" y1="0" x2="1" y2="1">
      <stop offset="0" stop-color="#0EA5E9" stop-opacity="0.45" />
      <stop offset="1" stop-color="#5B21B6" stop-opacity="0.25" />
    </linearGradient>
    <filter id="glow" x="-20%" y="-20%" width="140%" height="140%" color-interpolation-filters="sRGB">
      <feGaussianBlur stdDeviation="42" result="blurred"/>
      <feBlend mode="screen" in="SourceGraphic" in2="blurred"/>
    </filter>
  </defs>
  <rect width="1920" height="1080" fill="#020617"/>
  <rect width="1920" height="1080" fill="url(#bg)"/>
  <circle cx="1470" cy="280" r="360" fill="url(#orbA)" filter="url(#glow)"/>
  <circle cx="420" cy="760" r="400" fill="url(#orbB)" filter="url(#glow)"/>
  <g opacity="0.75" transform="translate(520 160)">
    <rect x="0" y="0" width="540" height="320" rx="28" fill="rgba(15, 118, 110, 0.12)" stroke="rgba(94, 234, 212, 0.25)" stroke-width="1.5" />
    <path d="M48 88C102 52 198 36 250 78C304 122 328 210 392 228C456 246 500 206 540 166" stroke="rgba(125, 211, 252, 0.55)" stroke-width="3.5" fill="none" stroke-linecap="round"/>
    <circle cx="120" cy="140" r="18" fill="rgba(94, 234, 212, 0.45)"/>
    <circle cx="212" cy="112" r="14" fill="rgba(59, 130, 246, 0.55)"/>
    <circle cx="332" cy="202" r="16" fill="rgba(244, 114, 182, 0.45)"/>
    <circle cx="452" cy="154" r="14" fill="rgba(147, 197, 253, 0.65)"/>
  </g>
  <g opacity="0.82" transform="translate(980 420)">
    <rect x="0" y="0" width="420" height="280" rx="24" fill="rgba(30, 64, 175, 0.18)" stroke="rgba(191, 219, 254, 0.32)" stroke-width="1.25" />
    <rect x="40" y="56" width="340" height="20" rx="10" fill="rgba(147, 197, 253, 0.55)"/>
    <rect x="40" y="98" width="280" height="18" rx="9" fill="rgba(191, 219, 254, 0.48)"/>
    <rect x="40" y="136" width="320" height="18" rx="9" fill="rgba(99, 102, 241, 0.48)"/>
    <rect x="40" y="174" width="260" height="18" rx="9" fill="rgba(59, 130, 246, 0.45)"/>
    <rect x="40" y="212" width="300" height="18" rx="9" fill="rgba(34, 197, 94, 0.42)"/>
  </g>
  <rect x="1120" y="220" width="280" height="120" rx="32" fill="url(#cardGradient)" opacity="0.9"/>
  <path d="M1160 260C1210 232 1312 228 1360 252" stroke="rgba(236, 72, 153, 0.6)" stroke-width="4" stroke-linecap="round"/>
  <path d="M1160 296C1210 320 1312 332 1360 316" stroke="rgba(129, 140, 248, 0.6)" stroke-width="4" stroke-linecap="round"/>
  <g transform="translate(300 420)" opacity="0.7">
    <rect x="0" y="0" width="320" height="360" rx="36" fill="rgba(244, 114, 182, 0.12)" stroke="rgba(253, 164, 175, 0.28)" stroke-width="1.4" />
    <rect x="48" y="70" width="224" height="32" rx="16" fill="rgba(244, 114, 182, 0.45)"/>
    <rect x="48" y="128" width="224" height="24" rx="12" fill="rgba(253, 224, 71, 0.4)"/>
    <rect x="48" y="176" width="224" height="24" rx="12" fill="rgba(96, 165, 250, 0.45)"/>
    <rect x="48" y="224" width="224" height="24" rx="12" fill="rgba(74, 222, 128, 0.45)"/>
    <rect x="48" y="272" width="224" height="24" rx="12" fill="rgba(248, 250, 252, 0.32)"/>
  </g>
</svg>