<svg xmlns="http://www.w3.org/2000/svg" width="1920" height="1080" fill="none" viewBox="0 0 1920 1080"><defs><radialGradient id="a" cx="0" cy="0" r="1" gradientTransform="rotate(35 -110.444 645.03)scale(1400)" gradientUnits="userSpaceOnUse"><stop offset="0" stop-color="#5d2ffe" stop-opacity=".92"/><stop offset=".35" stop-color="#3ef9c5" stop-opacity=".45"/><stop offset=".68" stop-color="#0ea5e9" stop-opacity=".18"/><stop offset="1" stop-color="#0b1120" stop-opacity="0"/></radialGradient><radialGradient id="b" cx="0" cy="0" r="1" gradientTransform="matrix(480 0 0 480 1470 280)" gradientUnits="userSpaceOnUse"><stop stop-color="#38bdf8" stop-opacity=".85"/><stop offset="1" stop-color="#1d4ed8" stop-opacity="0"/></radialGradient><radialGradient id="d" cx="0" cy="0" r="1" gradientTransform="matrix(560 0 0 560 420 760)" gradientUnits="userSpaceOnUse"><stop stop-color="#a855f7" stop-opacity=".85"/><stop offset="1" stop-color="#7c3aed" stop-opacity="0"/></radialGradient><linearGradient id="e" x1="0" x2="1" y1="0" y2="1"><stop offset="0" stop-color="#0ea5e9" stop-opacity=".45"/><stop offset="1" stop-color="#5b21b6" stop-opacity=".25"/></linearGradient><filter id="c" width="140%" height="140%" x="-20%" y="-20%" color-interpolation-filters="sRGB"><feGaussianBlur result="blurred" stdDeviation="42"/><feBlend in="SourceGraphic" in2="blurred" mode="screen"/></filter></defs><path fill="#020617" d="M0 0h1920v1080H0z"/><path fill="url(#a)" d="M0 0h1920v1080H0z"/><circle cx="1470" cy="280" r="360" fill="url(#b)" filter="url(#c)"/><circle cx="420" cy="760" r="400" fill="url(#d)" filter="url(#c)"/><g opacity=".75" transform="translate(520 160)"><rect width="540" height="320" fill="rgba(15, 118, 110, 0.12)" stroke="rgba(94, 234, 212, 0.25)" stroke-width="1.5" rx="28"/><path stroke="rgba(125, 211, 252, 0.55)" stroke-linecap="round" stroke-width="3.5" d="M48 88c54-36 150-52 202-10 54 44 78 132 142 150s108-22 148-62"/><circle cx="120" cy="140" r="18" fill="rgba(94, 234, 212, 0.45)"/><circle cx="212" cy="112" r="14" fill="rgba(59, 130, 246, 0.55)"/><circle cx="332" cy="202" r="16" fill="rgba(244, 114, 182, 0.45)"/><circle cx="452" cy="154" r="14" fill="rgba(147, 197, 253, 0.65)"/></g><g opacity=".82" transform="translate(980 420)"><rect width="420" height="280" fill="rgba(30, 64, 175, 0.18)" stroke="rgba(191, 219, 254, 0.32)" stroke-width="1.25" rx="24"/><rect width="340" height="20" x="40" y="56" fill="rgba(147, 197, 253, 0.55)" rx="10"/><rect width="280" height="18" x="40" y="98" fill="rgba(191, 219, 254, 0.48)" rx="9"/><rect width="320" height="18" x="40" y="136" fill="rgba(99, 102, 241, 0.48)" rx="9"/><rect width="260" height="18" x="40" y="174" fill="rgba(59, 130, 246, 0.45)" rx="9"/><rect width="300" height="18" x="40" y="212" fill="rgba(34, 197, 94, 0.42)" rx="9"/></g><rect width="280" height="120" x="1120" y="220" fill="url(#e)" opacity=".9" rx="32"/><path stroke="rgba(236, 72, 153, 0.6)" stroke-linecap="round" stroke-width="4" d="M1160 260c50-28 152-32 200-8"/><path stroke="rgba(129, 140, 248, 0.6)" stroke-linecap="round" stroke-width="4" d="M1160 296c50 24 152 36 200 20"/><g opacity=".7" transform="translate(300 420)"><rect width="320" height="360" fill="rgba(244, 114, 182, 0.12)" stroke="rgba(253, 164, 175, 0.28)" stroke-width="1.4" rx="36"/><rect width="224" height="32" x="48" y="70" fill="rgba(244, 114, 182, 0.45)" rx="16"/><rect width="224" height="24" x="48" y="128" fill="rgba(253, 224, 71, 0.4)" rx="12"/><rect width="224" height="24" x="48" y="176" fill="rgba(96, 165, 250, 0.45)" rx="12"/><rect width="224" height="24" x="48" y="224" fill="rgba(74, 222, 128, 0.45)" rx="12"/><rect width="224" height="24" x="48" y="272" fill="rgba(248, 250, 252, 0.32)" rx="12"/></g></svg>
