<svg xmlns="http://www.w3.org/2000/svg" viewBox="0 0 64 64" role="img" aria-label="Artifically infinity favicon">
  <defs>
    <radialGradient id="favicon-halo" cx="32" cy="28" r="30" gradientUnits="userSpaceOnUse">
      <stop offset="0" stop-color="#1c2a54" stop-opacity="0.9" />
      <stop offset="0.55" stop-color="#10213f" stop-opacity="0.35" />
      <stop offset="1" stop-color="#061329" stop-opacity="0" />
    </radialGradient>
    <linearGradient id="favicon-loop" x1="10" y1="18" x2="54" y2="46" gradientUnits="userSpaceOnUse">
      <stop offset="0" stop-color="#8bb7ff" />
      <stop offset="0.45" stop-color="#d6e4ff" />
      <stop offset="1" stop-color="#7ef5b7" />
    </linearGradient>
    <linearGradient id="favicon-flow" x1="12" y1="18" x2="56" y2="40" gradientUnits="userSpaceOnUse">
      <stop offset="0" stop-color="#68d5ff" />
      <stop offset="0.7" stop-color="#33f0ff" />
      <stop offset="1" stop-color="#7ef5b7" />
    </linearGradient>
  </defs>

  <rect width="64" height="64" rx="14" fill="#061329" />
  <ellipse cx="32" cy="30" rx="26" ry="24" fill="url(#favicon-halo)" />

  <path
    d="M19 16C10.5741 16 6 24.6809 6 32C6 39.3191 10.5741 48 19 48C24.7538 48 30.5401 44.0555 33.8492 38.4372C37.1583 44.0555 42.9446 48 48.6983 48C57.1259 48 62 39.3191 62 32C62 24.6809 57.1259 16 48.6983 16C42.9446 16 37.1583 19.9445 33.8492 25.5628C30.5401 19.9445 24.7538 16 19 16ZM19 22C24.5975 22 29.3862 27.5459 31.6206 32C29.3862 36.4541 24.5975 42 19 42C13.6269 42 10 36.6513 10 32C10 27.3487 13.6269 22 19 22ZM48.6983 22C43.1008 22 38.3121 27.5459 36.0777 32C38.3121 36.4541 43.1008 42 48.6983 42C54.0714 42 58 36.6513 58 32C58 27.3487 54.0714 22 48.6983 22Z"
    fill="url(#favicon-loop)"
    stroke="#0f1f3e"
    stroke-opacity="0.3"
    stroke-width="1.2"
  />

  <path
    d="M12 32C12 22.6 17.8 18 23.5 18C29.6 18 34.4 22.6 36.7 27.6C39.5 33.8 44.8 38 50.5 38C55.2 38 58 34 58 29.6"
    fill="none"
    stroke="url(#favicon-flow)"
    stroke-width="3.4"
    stroke-linecap="round"
    stroke-linejoin="round"
  />

  <path
    d="M24 46C28.1 52 35.9 52 40 46"
    fill="none"
    stroke="#9ab6ff"
    stroke-opacity="0.85"
    stroke-width="2.4"
    stroke-linecap="round"
  />

  <circle cx="18.2" cy="32" r="3.1" fill="#7dc6ff" />
  <circle cx="32" cy="22" r="2.6" fill="#6fe6d4" />
  <circle cx="45.8" cy="32" r="3.1" fill="#9ab7ff" />
  <circle cx="32" cy="42" r="2.6" fill="#7ef5b7" />
  <circle cx="32" cy="32" r="4.2" fill="#0b1c3b" stroke="#68d5ff" stroke-width="1.6" />
</svg>
