<svg width="720" height="480" viewBox="0 0 720 480" fill="none" xmlns="http://www.w3.org/2000/svg">
  <rect width="720" height="480" rx="36" fill="url(#bg)"/>
  <defs>
    <linearGradient id="bg" x1="96" y1="48" x2="624" y2="432" gradientUnits="userSpaceOnUse">
      <stop stop-color="#1f2937"/>
      <stop offset="0.52" stop-color="#312e81"/>
      <stop offset="1" stop-color="#0ea5e9"/>
    </linearGradient>
    <linearGradient id="shield" x1="360" y1="96" x2="360" y2="384" gradientUnits="userSpaceOnUse">
      <stop stop-color="#60a5fa" stop-opacity="0.95"/>
      <stop offset="1" stop-color="#22d3ee" stop-opacity="0.85"/>
    </linearGradient>
    <radialGradient id="glow" cx="0" cy="0" r="1" gradientUnits="userSpaceOnUse" gradientTransform="translate(360 240) scale(240 160)">
      <stop stop-color="#93c5fd" stop-opacity="0.72"/>
      <stop offset="1" stop-color="#0f172a" stop-opacity="0"/>
    </radialGradient>
  </defs>
  <rect x="64" y="48" width="592" height="384" rx="28" fill="rgba(15,23,42,0.45)" stroke="rgba(148,163,184,0.16)" stroke-width="2"/>
  <circle cx="360" cy="240" r="214" fill="url(#glow)"/>
  <path d="M360 126L256 168V246C256 324 306 360 360 378C414 360 464 324 464 246V168L360 126Z" fill="url(#shield)" stroke="rgba(255,255,255,0.35)" stroke-width="4" stroke-linejoin="round"/>
  <path d="M360 180L308 198V244C308 294 338 316 360 324C382 316 412 294 412 244V198L360 180Z" fill="rgba(15,23,42,0.82)" stroke="rgba(255,255,255,0.22)" stroke-width="3" stroke-linejoin="round"/>
  <path d="M360 244L334 232V262C334 290 348 298 360 302C372 298 386 290 386 262V232L360 244Z" fill="#38bdf8" fill-opacity="0.82"/>
  <g opacity="0.28" stroke="#e0f2fe" stroke-width="2" stroke-linecap="round">
    <path d="M132 160H204"/>
    <path d="M116 208H196"/>
    <path d="M152 256H220"/>
    <path d="M516 304H592"/>
    <path d="M528 352H604"/>
    <path d="M504 208H588"/>
  </g>
  <g fill="#38bdf8" fill-opacity="0.38">
    <circle cx="164" cy="160" r="6"/>
    <circle cx="196" cy="208" r="5"/>
    <circle cx="220" cy="256" r="7"/>
    <circle cx="532" cy="208" r="5"/>
    <circle cx="564" cy="304" r="6"/>
    <circle cx="588" cy="352" r="5"/>
  </g>
</svg>