<svg width="720" height="480" viewBox="0 0 720 480" fill="none" xmlns="http://www.w3.org/2000/svg">
  <rect width="720" height="480" rx="36" fill="url(#bg)"/>
  <defs>
    <linearGradient id="bg" x1="80" y1="40" x2="640" y2="440" gradientUnits="userSpaceOnUse">
      <stop stop-color="#1e1b4b"/>
      <stop offset="0.45" stop-color="#7c3aed"/>
      <stop offset="1" stop-color="#fb7185"/>
    </linearGradient>
    <linearGradient id="ring" x1="360" y1="120" x2="360" y2="360" gradientUnits="userSpaceOnUse">
      <stop stop-color="#c4b5fd"/>
      <stop offset="1" stop-color="#f9a8d4"/>
    </linearGradient>
    <linearGradient id="spark" x1="0" y1="0" x2="1" y2="1">
      <stop stop-color="#f472b6" stop-opacity="0.8"/>
      <stop offset="1" stop-color="#f97316" stop-opacity="0.6"/>
    </linearGradient>
  </defs>
  <rect x="72" y="52" width="576" height="376" rx="30" fill="rgba(15,23,42,0.35)" stroke="rgba(244, 114, 182, 0.24)" stroke-width="2"/>
  <g opacity="0.24" stroke="rgba(236, 72, 153, 0.65)" stroke-width="2" stroke-dasharray="12 12">
    <rect x="120" y="108" width="480" height="264" rx="26"/>
    <rect x="156" y="148" width="408" height="184" rx="22"/>
  </g>
  <circle cx="360" cy="240" r="144" stroke="url(#ring)" stroke-width="18" fill="none"/>
  <circle cx="360" cy="240" r="92" stroke="rgba(255,255,255,0.22)" stroke-width="3" fill="rgba(30, 41, 59, 0.65)"/>
  <path d="M360 160C409 160 450 201 450 250C450 299 409 340 360 340C311 340 270 299 270 250" stroke="url(#spark)" stroke-width="16" stroke-linecap="round" fill="none"/>
  <path d="M270 250L282 238" stroke="#f97316" stroke-width="12" stroke-linecap="round"/>
  <path d="M450 250L438 262" stroke="#f472b6" stroke-width="12" stroke-linecap="round"/>
  <g opacity="0.9">
    <circle cx="360" cy="240" r="24" fill="#fde68a" fill-opacity="0.85"/>
    <path d="M360 224L372 248H348L360 224Z" fill="#f97316"/>
    <path d="M360 256L348 232H372L360 256Z" fill="#f472b6"/>
  </g>
  <g opacity="0.35" stroke="#fda4af" stroke-width="2" stroke-linecap="round">
    <path d="M164 180H236"/>
    <path d="M164 212H228"/>
    <path d="M512 270H584"/>
    <path d="M512 300H572"/>
  </g>
  <g fill="#f9a8d4" fill-opacity="0.65">
    <circle cx="188" cy="180" r="6"/>
    <circle cx="220" cy="212" r="5"/>
    <circle cx="536" cy="270" r="6"/>
    <circle cx="564" cy="300" r="5"/>
  </g>
</svg>