<svg width="720" height="480" viewBox="0 0 720 480" fill="none" xmlns="http://www.w3.org/2000/svg">
  <rect width="720" height="480" rx="36" fill="url(#bg)"/>
  <defs>
    <linearGradient id="bg" x1="96" y1="40" x2="632" y2="440" gradientUnits="userSpaceOnUse">
      <stop stop-color="#020617"/>
      <stop offset="0.5" stop-color="#0f172a"/>
      <stop offset="1" stop-color="#0ea5e9"/>
    </linearGradient>
    <radialGradient id="focus" cx="0" cy="0" r="1" gradientUnits="userSpaceOnUse" gradientTransform="translate(360 240) scale(220 150)">
      <stop stop-color="#38bdf8" stop-opacity="0.8"/>
      <stop offset="1" stop-color="#0f172a" stop-opacity="0"/>
    </radialGradient>
  </defs>
  <rect x="64" y="56" width="592" height="368" rx="30" fill="rgba(15,23,42,0.5)" stroke="rgba(148,163,184,0.18)" stroke-width="2"/>
  <circle cx="360" cy="240" r="212" fill="url(#focus)"/>
  <rect x="180" y="150" width="360" height="200" rx="28" fill="rgba(2,6,23,0.72)" stroke="rgba(56,189,248,0.45)" stroke-width="2"/>
  <rect x="204" y="176" width="172" height="52" rx="18" fill="rgba(30,64,175,0.5)" stroke="rgba(148,163,184,0.35)" stroke-width="1.5"/>
  <circle cx="232" cy="202" r="18" fill="#0ea5e9"/>
  <path d="M228 201L232 205L240 197" stroke="white" stroke-width="3" stroke-linecap="round" stroke-linejoin="round"/>
  <rect x="396" y="176" width="120" height="52" rx="16" fill="rgba(14,116,144,0.55)" stroke="rgba(148,163,184,0.35)" stroke-width="1.5"/>
  <rect x="204" y="250" width="312" height="20" rx="10" fill="rgba(15,118,110,0.6)"/>
  <rect x="204" y="284" width="260" height="18" rx="9" fill="rgba(45,212,191,0.45)"/>
  <rect x="204" y="316" width="220" height="18" rx="9" fill="rgba(14,165,233,0.45)"/>
  <g opacity="0.6" stroke="#38bdf8" stroke-width="2" stroke-linecap="round">
    <path d="M128 168H192"/>
    <path d="M128 206H188"/>
    <path d="M128 244H184"/>
    <path d="M528 320H596"/>
    <path d="M520 286H596"/>
  </g>
  <g fill="#38bdf8" fill-opacity="0.55">
    <circle cx="160" cy="168" r="6"/>
    <circle cx="184" cy="206" r="5"/>
    <circle cx="176" cy="244" r="6"/>
    <circle cx="560" cy="286" r="6"/>
    <circle cx="580" cy="320" r="5"/>
  </g>
  <path d="M440 224C440 207 428 194 412 194C396 194 384 207 384 224" stroke="#bae6fd" stroke-width="3" stroke-linecap="round"/>
  <path d="M384 280H440" stroke="#bae6fd" stroke-width="3" stroke-linecap="round"/>
  <rect x="348" y="214" width="128" height="96" rx="24" stroke="#38bdf8" stroke-width="3" fill="rgba(15,23,42,0.55)"/>
</svg>