<svg width="1280" height="720" viewBox="0 0 1280 720" xmlns="http://www.w3.org/2000/svg" role="img" aria-labelledby="title desc">
  <title id="title">Artifically hero fallback</title>
  <desc id="desc">A luminous orb surrounded by orbiting nodes and flowing energy streams set against a deep navy gradient.</desc>
  <defs>
    <linearGradient id="bg-gradient" x1="0%" y1="0%" x2="100%" y2="100%">
      <stop offset="0%" stop-color="#0B1224" />
      <stop offset="50%" stop-color="#0D1630" />
      <stop offset="100%" stop-color="#0A1326" />
    </linearGradient>
    <radialGradient id="orb-core" cx="50%" cy="45%" r="35%">
      <stop offset="0%" stop-color="#63F5FF" stop-opacity="0.95" />
      <stop offset="35%" stop-color="#38BDF8" stop-opacity="0.85" />
      <stop offset="65%" stop-color="#22D3EE" stop-opacity="0.55" />
      <stop offset="100%" stop-color="#0F1E3C" stop-opacity="0.1" />
    </radialGradient>
    <radialGradient id="orb-shell" cx="50%" cy="50%" r="50%">
      <stop offset="15%" stop-color="#1EA7FF" stop-opacity="0.55" />
      <stop offset="55%" stop-color="#22D3EE" stop-opacity="0.25" />
      <stop offset="100%" stop-color="#0EA5E9" stop-opacity="0" />
    </radialGradient>
    <radialGradient id="glow" cx="50%" cy="50%" r="50%">
      <stop offset="0%" stop-color="#22D3EE" stop-opacity="0.6" />
      <stop offset="65%" stop-color="#6366F1" stop-opacity="0.2" />
      <stop offset="100%" stop-color="#0EA5E9" stop-opacity="0" />
    </radialGradient>
    <linearGradient id="stream-a" x1="0%" y1="0%" x2="100%" y2="0%">
      <stop offset="0%" stop-color="#38BDF8" />
      <stop offset="50%" stop-color="#22D3EE" />
      <stop offset="100%" stop-color="#A855F7" />
    </linearGradient>
    <linearGradient id="stream-b" x1="0%" y1="0%" x2="100%" y2="0%">
      <stop offset="0%" stop-color="#2DD4BF" />
      <stop offset="60%" stop-color="#38BDF8" />
      <stop offset="100%" stop-color="#7C3AED" />
    </linearGradient>
    <filter id="soft" x="-50%" y="-50%" width="200%" height="200%">
      <feGaussianBlur stdDeviation="18" result="blur" />
      <feBlend in="SourceGraphic" in2="blur" mode="screen" />
    </filter>
    <filter id="orb-blur" x="-60%" y="-60%" width="220%" height="220%">
      <feGaussianBlur stdDeviation="28" />
    </filter>
  </defs>
  <rect width="1280" height="720" fill="url(#bg-gradient)" />
  <g opacity="0.78" filter="url(#soft)">
    <ellipse cx="420" cy="240" rx="260" ry="220" fill="#5D2FFE" fill-opacity="0.35" />
    <ellipse cx="960" cy="420" rx="220" ry="210" fill="#3EF9C5" fill-opacity="0.22" />
    <ellipse cx="820" cy="540" rx="260" ry="200" fill="#FF9153" fill-opacity="0.18" />
  </g>
  <g filter="url(#orb-blur)">
    <circle cx="640" cy="360" r="165" fill="url(#glow)" opacity="0.85" />
  </g>
  <circle cx="640" cy="360" r="120" fill="url(#orb-shell)" opacity="0.9" />
  <circle cx="640" cy="360" r="96" fill="url(#orb-core)" />
  <g stroke-linecap="round" stroke-width="5" opacity="0.9">
    <path d="M240 260C360 240 520 240 620 320" stroke="url(#stream-a)" opacity="0.78" />
    <path d="M1030 430C920 420 780 380 660 360" stroke="url(#stream-b)" opacity="0.82" />
    <path d="M960 220C820 260 720 300 650 340" stroke="url(#stream-a)" opacity="0.65" />
  </g>
  <g opacity="0.94">
    <circle cx="270" cy="250" r="12" fill="#38BDF8" />
    <circle cx="960" cy="430" r="14" fill="#22D3EE" />
    <circle cx="1020" cy="220" r="10" fill="#A855F7" />
    <circle cx="420" cy="540" r="11" fill="#2DD4BF" />
    <circle cx="880" cy="580" r="9" fill="#38BDF8" />
    <circle cx="540" cy="160" r="8" fill="#22D3EE" />
    <circle cx="780" cy="150" r="10" fill="#7C3AED" />
  </g>
  <g stroke="#38BDF8" stroke-opacity="0.32" stroke-width="1.2">
    <ellipse cx="640" cy="360" rx="310" ry="120" transform="rotate(18 640 360)" />
    <ellipse cx="640" cy="360" rx="360" ry="160" transform="rotate(-14 640 360)" />
    <ellipse cx="640" cy="360" rx="420" ry="190" transform="rotate(8 640 360)" />
  </g>
</svg>